SIPNOSIS

Han pasado quince años desde que Hansel (Jeremy Renner) y Gretel (Gemma Arterton) vivieron la aventura que los hizo famosos. Tras probar el sabor de la sangre siendo unos niños, ambos se han convertido en unos auténticos justicieros, dispuestos a todo para vengarse. Pero ahora, sin que ellos lo sepan, también se han convertido en la presa, y tienen que enfrentarse a algo mucho más siniestro que las brujas: su pasado.


DATOS TECNICOS

Format                                   : Matroska
Format version                           : Version 4 / Version 2
File size                                : 8.03 GiB
Duration                                 : 1h 27mn
Overall bit rate                         : 13.1 Mbps
Encoded date                             : UTC 2013-05-21 20:25:07
Writing application                      : mkvmerge v6.1.0 ('Old Devil') built on Mar  2 2013 14:32:37
Writing library                          : libebml v1.3.0 + libmatroska v1.4.0

Video
ID                                       : 1
Codec ID                                 : V_MPEG4/ISO/AVC
Duration                                 : 1h 27mn
Bit rate                                 : 12.2 Mbps
Width                                    : 1 920 pixels
Height                                   : 1 080 pixels
Display aspect ratio                     : 16:9
Frame rate mode                          : Constant
Frame rate                               : 23.976 fps


Audio #1
ID                                       : 2
Format                                   : AC-3
Duration                                 : 1h 27mn
Bit rate mode                            : Constant
Bit rate                                 : 448 Kbps
Channel(s)                               : 6 channels
Channel positions                        : Front: L C R, Side: L R, LFE
Sampling rate                            : 48.0 KHz
Bit depth                                : 16 bits
Compression mode                         : Lossy
Stream size                              : 282 MiB (3%)
Title                                    : Español Latino
Language                                 : Latin
Default                                  : Yes
Forced                                   : No

Audio #2
ID                                       : 3
Format                                   : AC-3
Duration                                 : 1h 27mn
Bit rate mode                            : Constant
Bit rate                                 : 192 Kbps
Channel(s)                               : 2 channels
Channel positions                        : Front: L R
Sampling rate                            : 48.0 KHz
Bit depth                                : 16 bits
Compression mode                         : Lossy
Stream size                              : 121 MiB (1%)
Title                                    : Ingles
Language                                 : English
Default                                  : No
Forced                                   : No

Text #1
ID                                       : 4
Format                                   : UTF-8
Codec ID                                 : S_TEXT/UTF8
Codec ID/Info                            : UTF-8 Plain Text
Title                                    : Forzados
Language                                 : Latin
Default                                  : Yes
Forced                                   : Yes

Text #2
ID                                       : 5
Format                                   : UTF-8
Codec ID                                 : S_TEXT/UTF8
Codec ID/Info                            : UTF-8 Plain Text
Title                                    : Español Latino
Language                                 : Latin
Default                                  : No
Forced                                   : No

Menu
00:00:00.000                             : en:00:00:00.000
00:08:56.828                             : en:00:08:56.828
00:15:57.790                             : en:00:15:57.790
00:24:07.112                             : en:00:24:07.112
00:32:17.936                             : en:00:32:17.936
00:40:12.869                             : en:00:40:12.869
00:46:45.636                             : en:00:46:45.636
00:52:22.097                             : en:00:52:22.097
01:00:20.033                             : en:01:00:20.033
01:05:05.652                             : en:01:05:05.652
01:12:49.657                             : en:01:12:49.657
01:19:01.820                             : en:01:19:01.820